<svg width="18" height="18" viewBox="0 0 18 18" fill="none" xmlns="http://www.w3.org/2000/svg">
<path d="M9.00086 7.54198L9.50086 7.54198C9.50086 7.26584 9.277 7.04198 9.00086 7.04198L9.00086 7.54198ZM9.00085 12.6323L8.50085 12.6323C8.50085 12.9085 8.72471 13.1323 9.00085 13.1323L9.00085 12.6323ZM8.99963 5.58766C8.72352 5.59194 8.50316 5.81924 8.50744 6.09535C8.51171 6.37146 8.73901 6.59182 9.01512 6.58754L8.99963 5.58766ZM9.18263 5.90217L8.68294 5.91988L8.68305 5.92264L9.18263 5.90217ZM8.99865 5.72401L9.00031 5.22388L8.98883 5.22411L8.99865 5.72401ZM8.8234 5.90944L9.32317 5.89394L9.32306 5.89105L8.8234 5.90944ZM9.00083 6.0876L8.98329 6.5873C8.98913 6.5875 8.99498 6.5876 9.00083 6.5876L9.00083 6.0876ZM9.00447 6.5876C9.28061 6.5876 9.50447 6.36375 9.50447 6.0876C9.50447 5.81146 9.28061 5.5876 9.00447 5.5876L9.00447 6.5876ZM8 7.04198C7.72386 7.04198 7.5 7.26584 7.5 7.54198C7.5 7.81812 7.72386 8.04198 8 8.04198L8 7.04198ZM10 13.1323C10.2761 13.1323 10.5 12.9085 10.5 12.6323C10.5 12.3562 10.2761 12.1323 10 12.1323L10 13.1323ZM8.50086 7.54198L8.50085 12.6323L9.50085 12.6323L9.50086 7.54198L8.50086 7.54198ZM9.01512 6.58754C9.10562 6.58614 9.19492 6.56664 9.27777 6.53018L8.87499 5.61489C8.91431 5.59758 8.95669 5.58833 8.99963 5.58766L9.01512 6.58754ZM9.27777 6.53018C9.36061 6.49373 9.43532 6.44106 9.49749 6.37528L8.77071 5.6884C8.80022 5.65718 8.83567 5.63219 8.87499 5.61489L9.27777 6.53018ZM9.49749 6.37528C9.55966 6.30949 9.60803 6.23193 9.63976 6.14717L8.7032 5.79666C8.71825 5.75643 8.74121 5.71962 8.77071 5.6884L9.49749 6.37528ZM9.63976 6.14717C9.67148 6.0624 9.68592 5.97214 9.68221 5.8817L8.68305 5.92264C8.68129 5.87972 8.68814 5.83689 8.7032 5.79666L9.63976 6.14717ZM9.68232 5.88446C9.67605 5.70756 9.60151 5.53997 9.47436 5.41684L8.7787 6.13521C8.72015 6.07851 8.68583 6.00134 8.68295 5.91988L9.68232 5.88446ZM9.47436 5.41684C9.34721 5.2937 9.17731 5.2246 9.00031 5.22401L8.997 6.224C8.91549 6.22374 8.83726 6.19191 8.7787 6.13521L9.47436 5.41684ZM8.98883 5.22411C8.8987 5.22588 8.80984 5.24558 8.72743 5.28205L9.13212 6.19651C9.09314 6.21375 9.05111 6.22307 9.00848 6.22391L8.98883 5.22411ZM8.72743 5.28205C8.64501 5.31852 8.57068 5.37104 8.50877 5.43655L9.23554 6.12343C9.20626 6.15441 9.1711 6.17925 9.13212 6.19651L8.72743 5.28205ZM8.50877 5.43655C8.44687 5.50205 8.39862 5.57922 8.36684 5.66358L9.30267 6.01604C9.28764 6.05595 9.26482 6.09245 9.23554 6.12343L8.50877 5.43655ZM8.36684 5.66358C8.33508 5.74793 8.32042 5.83776 8.32374 5.92783L9.32306 5.89105C9.32463 5.93366 9.3177 5.97615 9.30267 6.01604L8.36684 5.66358ZM8.32364 5.92494C8.32902 6.09844 8.40017 6.2634 8.52265 6.38639L9.23121 5.68073C9.2878 5.73756 9.32067 5.81378 9.32316 5.89394L8.32364 5.92494ZM8.52265 6.38639C8.64514 6.50938 8.80981 6.58121 8.98329 6.5873L9.01838 5.58791C9.09854 5.59073 9.17462 5.62391 9.23121 5.68073L8.52265 6.38639ZM9.00083 6.5876L9.00447 6.5876L9.00447 5.5876L9.00083 5.5876L9.00083 6.5876ZM1.5 9C1.5 4.85786 4.85787 1.5 9 1.5L9 0.499999C4.30558 0.499999 0.500001 4.30558 0.500001 9L1.5 9ZM9 1.5C13.1421 1.5 16.5 4.85786 16.5 9L17.5 9C17.5 4.30558 13.6944 0.5 9 0.499999L9 1.5ZM16.5 9C16.5 13.1421 13.1421 16.5 9 16.5L9 17.5C13.6944 17.5 17.5 13.6944 17.5 9L16.5 9ZM9 16.5C4.85786 16.5 1.5 13.1421 1.5 9L0.500001 9C0.5 13.6944 4.30558 17.5 9 17.5L9 16.5ZM9.00086 7.04198L8 7.04198L8 8.04198L9.00086 8.04198L9.00086 7.04198ZM9.00085 13.1323L10 13.1323L10 12.1323L9.00085 12.1323L9.00085 13.1323Z" fill="#0C1214"/>
</svg>
