<?xml version="1.0" encoding="UTF-8"?>
<svg width="87px" height="18px" viewBox="0 0 87 18" version="1.1" xmlns="http://www.w3.org/2000/svg" xmlns:xlink="http://www.w3.org/1999/xlink">
    <!-- Generator: sketchtool 44.1 (41455) - http://www.bohemiancoding.com/sketch -->
    <title>A29CCC55-6C34-4018-9F3B-D35837A9B0D1</title>
    <desc>Created with sketchtool.</desc>
    <defs></defs>
    <g id="Symbols" stroke="none" stroke-width="1" fill="none" fill-rule="evenodd">
        <g id="Top-Menu-2" transform="translate(-125.000000, -2.000000)" fill="#0A0D0F">
            <path d="M176.179088,19.5492867 L176.179088,2.33140512 L179.666146,2.33140512 L179.666146,19.5492867 L176.179088,19.5492867 Z M186.204379,2.33140512 L190.12732,2.33140512 L183.589086,10.9403459 L190.12732,19.5492867 L186.204379,19.5492867 L179.666146,10.9403459 L186.204379,2.33140512 Z M170.253172,9.64900478 L170.253172,12.231687 L164.186853,12.231687 L163.140736,9.64900478 L170.253172,9.64900478 Z M139.451698,2.33140512 L139.451698,19.5492867 L136.209751,19.5492867 L128.990524,8.58130481 L128.990524,19.5492867 L125.503466,19.5492867 L125.503466,2.33140512 L128.745413,2.33140512 L135.96464,13.2994348 L135.96464,2.33140512 L139.451698,2.33140512 Z M211.866608,10.9403459 C211.866608,15.6949204 207.963621,19.5492867 203.148963,19.5492867 L197.729881,19.5492867 L197.729881,2.33140512 L203.148963,2.33140512 C207.963621,2.33140512 211.866608,6.18577139 211.866608,10.9403459 Z M153.497083,2.33140512 L160.471199,19.5492867 L156.984141,19.5492867 L153.497083,10.9403459 L150.010025,19.5492867 L146.522967,19.5492867 L153.497083,2.33140512 Z M201.216939,16.3926751 L202.858375,16.3926751 C205.907662,16.3926751 208.37955,13.9516099 208.37955,10.9403459 C208.37955,7.92912972 205.907662,5.48801674 202.858375,5.48801674 L201.216939,5.48801674 L201.216939,16.3926751 Z" id="NA-KD-Logo"></path>
        </g>
    </g>
</svg>